<svg xmlns="http://www.w3.org/2000/svg" width="1024" height="1024" viewBox="0 0 1024 1024" shape-rendering="crispEdges" style="image-rendering:pixelated">
  <rect width="1024" height="1024" fill="#F7F7F3"/>
  <rect x="344" y="248" width="48" height="8" fill="#21242e"/><rect x="632" y="248" width="48" height="8" fill="#21242e"/><rect x="344" y="256" width="48" height="8" fill="#21242e"/><rect x="632" y="256" width="48" height="8" fill="#21242e"/><rect x="344" y="264" width="48" height="8" fill="#21242e"/><rect x="632" y="264" width="48" height="8" fill="#21242e"/><rect x="344" y="272" width="72" height="8" fill="#21242e"/><rect x="608" y="272" width="72" height="8" fill="#21242e"/><rect x="344" y="280" width="72" height="8" fill="#21242e"/><rect x="608" y="280" width="72" height="8" fill="#21242e"/><rect x="344" y="288" width="72" height="8" fill="#21242e"/><rect x="608" y="288" width="72" height="8" fill="#21242e"/><rect x="344" y="296" width="96" height="8" fill="#21242e"/><rect x="440" y="296" width="48" height="8" fill="#111722"/><rect x="488" y="296" width="48" height="8" fill="#21242e"/><rect x="536" y="296" width="48" height="8" fill="#111722"/><rect x="584" y="296" width="96" height="8" fill="#21242e"/><rect x="344" y="304" width="96" height="8" fill="#21242e"/><rect x="440" y="304" width="16" height="8" fill="#ffffff"/><rect x="456" y="304" width="32" height="8" fill="#8ba1d4"/><rect x="488" y="304" width="48" height="8" fill="#21242e"/><rect x="536" y="304" width="16" height="8" fill="#ffffff"/><rect x="552" y="304" width="32" height="8" fill="#8ba1d4"/><rect x="584" y="304" width="96" height="8" fill="#21242e"/><rect x="344" y="312" width="96" height="8" fill="#21242e"/><rect x="440" y="312" width="48" height="8" fill="#8ba1d4"/><rect x="488" y="312" width="48" height="8" fill="#21242e"/><rect x="536" y="312" width="48" height="8" fill="#8ba1d4"/><rect x="584" y="312" width="96" height="8" fill="#21242e"/><rect x="320" y="320" width="120" height="8" fill="#21242e"/><rect x="440" y="320" width="48" height="8" fill="#8ba1d4"/><rect x="488" y="320" width="48" height="8" fill="#21242e"/><rect x="536" y="320" width="48" height="8" fill="#8ba1d4"/><rect x="584" y="320" width="96" height="8" fill="#21242e"/><rect x="320" y="328" width="120" height="8" fill="#21242e"/><rect x="440" y="328" width="32" height="8" fill="#8ba1d4"/><rect x="472" y="328" width="64" height="8" fill="#21242e"/><rect x="536" y="328" width="32" height="8" fill="#8ba1d4"/><rect x="568" y="328" width="112" height="8" fill="#21242e"/><rect x="320" y="336" width="120" height="8" fill="#21242e"/><rect x="440" y="336" width="32" height="8" fill="#8ba1d4"/><rect x="472" y="336" width="64" height="8" fill="#21242e"/><rect x="536" y="336" width="32" height="8" fill="#8ba1d4"/><rect x="568" y="336" width="112" height="8" fill="#21242e"/><rect x="296" y="344" width="72" height="8" fill="#21242e"/><rect x="368" y="344" width="16" height="8" fill="#ffffff"/><rect x="384" y="344" width="224" height="8" fill="#60619c"/><rect x="608" y="344" width="72" height="8" fill="#21242e"/><rect x="296" y="352" width="72" height="8" fill="#21242e"/><rect x="368" y="352" width="16" height="8" fill="#ffffff"/><rect x="384" y="352" width="224" height="8" fill="#60619c"/><rect x="608" y="352" width="72" height="8" fill="#21242e"/><rect x="296" y="360" width="72" height="8" fill="#21242e"/><rect x="368" y="360" width="240" height="8" fill="#60619c"/><rect x="608" y="360" width="72" height="8" fill="#21242e"/><rect x="296" y="368" width="48" height="8" fill="#21242e"/><rect x="344" y="368" width="288" height="8" fill="#60619c"/><rect x="632" y="368" width="48" height="8" fill="#21242e"/><rect x="296" y="376" width="48" height="8" fill="#21242e"/><rect x="344" y="376" width="288" height="8" fill="#60619c"/><rect x="632" y="376" width="48" height="8" fill="#21242e"/><rect x="296" y="384" width="48" height="8" fill="#21242e"/><rect x="344" y="384" width="288" height="8" fill="#60619c"/><rect x="632" y="384" width="48" height="8" fill="#21242e"/><rect x="296" y="392" width="48" height="8" fill="#21242e"/><rect x="344" y="392" width="48" height="8" fill="#60619c"/><rect x="392" y="392" width="48" height="8" fill="#ffffff"/><rect x="440" y="392" width="48" height="8" fill="#60619c"/><rect x="488" y="392" width="48" height="8" fill="#ffffff"/><rect x="536" y="392" width="96" height="8" fill="#60619c"/><rect x="632" y="392" width="48" height="8" fill="#21242e"/><rect x="296" y="400" width="48" height="8" fill="#21242e"/><rect x="344" y="400" width="48" height="8" fill="#60619c"/><rect x="392" y="400" width="48" height="8" fill="#ffffff"/><rect x="440" y="400" width="48" height="8" fill="#60619c"/><rect x="488" y="400" width="48" height="8" fill="#ffffff"/><rect x="536" y="400" width="96" height="8" fill="#60619c"/><rect x="632" y="400" width="48" height="8" fill="#21242e"/><rect x="296" y="408" width="48" height="8" fill="#21242e"/><rect x="344" y="408" width="48" height="8" fill="#60619c"/><rect x="392" y="408" width="48" height="8" fill="#ffffff"/><rect x="440" y="408" width="48" height="8" fill="#60619c"/><rect x="488" y="408" width="48" height="8" fill="#ffffff"/><rect x="536" y="408" width="96" height="8" fill="#60619c"/><rect x="632" y="408" width="48" height="8" fill="#21242e"/><rect x="296" y="416" width="48" height="8" fill="#21242e"/><rect x="344" y="416" width="48" height="8" fill="#60619c"/><rect x="392" y="416" width="48" height="8" fill="#ffffff"/><rect x="440" y="416" width="48" height="8" fill="#60619c"/><rect x="488" y="416" width="48" height="8" fill="#ffffff"/><rect x="536" y="416" width="120" height="8" fill="#60619c"/><rect x="656" y="416" width="48" height="8" fill="#21242e"/><rect x="296" y="424" width="48" height="8" fill="#21242e"/><rect x="344" y="424" width="48" height="8" fill="#60619c"/><rect x="392" y="424" width="48" height="8" fill="#ffffff"/><rect x="440" y="424" width="48" height="8" fill="#60619c"/><rect x="488" y="424" width="48" height="8" fill="#ffffff"/><rect x="536" y="424" width="120" height="8" fill="#60619c"/><rect x="656" y="424" width="48" height="8" fill="#21242e"/><rect x="296" y="432" width="48" height="8" fill="#21242e"/><rect x="344" y="432" width="48" height="8" fill="#60619c"/><rect x="392" y="432" width="48" height="8" fill="#ffffff"/><rect x="440" y="432" width="48" height="8" fill="#60619c"/><rect x="488" y="432" width="48" height="8" fill="#ffffff"/><rect x="536" y="432" width="120" height="8" fill="#60619c"/><rect x="656" y="432" width="48" height="8" fill="#21242e"/><rect x="296" y="440" width="48" height="8" fill="#21242e"/><rect x="344" y="440" width="144" height="8" fill="#60619c"/><rect x="488" y="440" width="16" height="8" fill="#ffffff"/><rect x="504" y="440" width="32" height="8" fill="#ecab37"/><rect x="536" y="440" width="144" height="8" fill="#60619c"/><rect x="680" y="440" width="48" height="8" fill="#21242e"/><rect x="296" y="448" width="48" height="8" fill="#21242e"/><rect x="344" y="448" width="144" height="8" fill="#60619c"/><rect x="488" y="448" width="16" height="8" fill="#ffffff"/><rect x="504" y="448" width="32" height="8" fill="#ecab37"/><rect x="536" y="448" width="144" height="8" fill="#60619c"/><rect x="680" y="448" width="48" height="8" fill="#21242e"/><rect x="296" y="456" width="48" height="8" fill="#21242e"/><rect x="344" y="456" width="144" height="8" fill="#60619c"/><rect x="488" y="456" width="48" height="8" fill="#ecab37"/><rect x="536" y="456" width="144" height="8" fill="#60619c"/><rect x="680" y="456" width="48" height="8" fill="#21242e"/><rect x="296" y="464" width="72" height="8" fill="#21242e"/><rect x="368" y="464" width="120" height="8" fill="#60619c"/><rect x="488" y="464" width="48" height="8" fill="#ecab37"/><rect x="536" y="464" width="144" height="8" fill="#60619c"/><rect x="680" y="464" width="48" height="8" fill="#21242e"/><rect x="296" y="472" width="72" height="8" fill="#21242e"/><rect x="368" y="472" width="120" height="8" fill="#60619c"/><rect x="488" y="472" width="32" height="8" fill="#ecab37"/><rect x="520" y="472" width="16" height="8" fill="#21242e"/><rect x="536" y="472" width="144" height="8" fill="#60619c"/><rect x="680" y="472" width="48" height="8" fill="#21242e"/><rect x="296" y="480" width="72" height="8" fill="#21242e"/><rect x="368" y="480" width="120" height="8" fill="#60619c"/><rect x="488" y="480" width="32" height="8" fill="#ecab37"/><rect x="520" y="480" width="16" height="8" fill="#21242e"/><rect x="536" y="480" width="144" height="8" fill="#60619c"/><rect x="680" y="480" width="48" height="8" fill="#21242e"/><rect x="320" y="488" width="48" height="8" fill="#21242e"/><rect x="368" y="488" width="288" height="8" fill="#60619c"/><rect x="656" y="488" width="48" height="8" fill="#21242e"/><rect x="320" y="496" width="48" height="8" fill="#21242e"/><rect x="368" y="496" width="288" height="8" fill="#60619c"/><rect x="656" y="496" width="48" height="8" fill="#21242e"/><rect x="320" y="504" width="48" height="8" fill="#21242e"/><rect x="368" y="504" width="288" height="8" fill="#60619c"/><rect x="656" y="504" width="48" height="8" fill="#21242e"/><rect x="368" y="512" width="48" height="8" fill="#21242e"/><rect x="416" y="512" width="192" height="8" fill="#60619c"/><rect x="608" y="512" width="48" height="8" fill="#21242e"/><rect x="368" y="520" width="48" height="8" fill="#21242e"/><rect x="416" y="520" width="192" height="8" fill="#60619c"/><rect x="608" y="520" width="48" height="8" fill="#21242e"/><rect x="368" y="528" width="48" height="8" fill="#21242e"/><rect x="416" y="528" width="192" height="8" fill="#60619c"/><rect x="608" y="528" width="48" height="8" fill="#21242e"/><rect x="392" y="536" width="48" height="8" fill="#21242e"/><rect x="440" y="536" width="48" height="8" fill="#60619c"/><rect x="488" y="536" width="16" height="8" fill="#ffffff"/><rect x="504" y="536" width="32" height="8" fill="#8ba1d4"/><rect x="536" y="536" width="48" height="8" fill="#60619c"/><rect x="584" y="536" width="48" height="8" fill="#21242e"/><rect x="392" y="544" width="48" height="8" fill="#21242e"/><rect x="440" y="544" width="48" height="8" fill="#60619c"/><rect x="488" y="544" width="16" height="8" fill="#ffffff"/><rect x="504" y="544" width="32" height="8" fill="#8ba1d4"/><rect x="536" y="544" width="48" height="8" fill="#60619c"/><rect x="584" y="544" width="48" height="8" fill="#21242e"/><rect x="392" y="552" width="48" height="8" fill="#21242e"/><rect x="440" y="552" width="48" height="8" fill="#60619c"/><rect x="488" y="552" width="48" height="8" fill="#8ba1d4"/><rect x="536" y="552" width="48" height="8" fill="#60619c"/><rect x="584" y="552" width="48" height="8" fill="#21242e"/><rect x="392" y="560" width="48" height="8" fill="#21242e"/><rect x="440" y="560" width="48" height="8" fill="#60619c"/><rect x="488" y="560" width="48" height="8" fill="#8ba1d4"/><rect x="536" y="560" width="48" height="8" fill="#60619c"/><rect x="584" y="560" width="48" height="8" fill="#21242e"/><rect x="392" y="568" width="48" height="8" fill="#21242e"/><rect x="440" y="568" width="48" height="8" fill="#60619c"/><rect x="488" y="568" width="32" height="8" fill="#8ba1d4"/><rect x="520" y="568" width="16" height="8" fill="#21242e"/><rect x="536" y="568" width="48" height="8" fill="#60619c"/><rect x="584" y="568" width="48" height="8" fill="#21242e"/><rect x="392" y="576" width="48" height="8" fill="#21242e"/><rect x="440" y="576" width="48" height="8" fill="#60619c"/><rect x="488" y="576" width="32" height="8" fill="#8ba1d4"/><rect x="520" y="576" width="16" height="8" fill="#21242e"/><rect x="536" y="576" width="48" height="8" fill="#60619c"/><rect x="584" y="576" width="48" height="8" fill="#21242e"/><rect x="368" y="584" width="48" height="8" fill="#21242e"/><rect x="416" y="584" width="192" height="8" fill="#60619c"/><rect x="608" y="584" width="120" height="8" fill="#21242e"/><rect x="368" y="592" width="48" height="8" fill="#21242e"/><rect x="416" y="592" width="192" height="8" fill="#60619c"/><rect x="608" y="592" width="120" height="8" fill="#21242e"/><rect x="368" y="600" width="48" height="8" fill="#21242e"/><rect x="416" y="600" width="192" height="8" fill="#60619c"/><rect x="608" y="600" width="120" height="8" fill="#21242e"/><rect x="344" y="608" width="48" height="8" fill="#21242e"/><rect x="392" y="608" width="240" height="8" fill="#60619c"/><rect x="632" y="608" width="96" height="8" fill="#21242e"/><rect x="344" y="616" width="48" height="8" fill="#21242e"/><rect x="392" y="616" width="240" height="8" fill="#60619c"/><rect x="632" y="616" width="96" height="8" fill="#21242e"/><rect x="344" y="624" width="48" height="8" fill="#21242e"/><rect x="392" y="624" width="240" height="8" fill="#60619c"/><rect x="632" y="624" width="96" height="8" fill="#21242e"/><rect x="344" y="632" width="48" height="8" fill="#21242e"/><rect x="392" y="632" width="48" height="8" fill="#60619c"/><rect x="440" y="632" width="16" height="8" fill="#ffffff"/><rect x="456" y="632" width="32" height="8" fill="#e6a7bb"/><rect x="488" y="632" width="144" height="8" fill="#60619c"/><rect x="632" y="632" width="96" height="8" fill="#21242e"/><rect x="344" y="640" width="48" height="8" fill="#21242e"/><rect x="392" y="640" width="48" height="8" fill="#60619c"/><rect x="440" y="640" width="16" height="8" fill="#ffffff"/><rect x="456" y="640" width="32" height="8" fill="#e6a7bb"/><rect x="488" y="640" width="128" height="8" fill="#60619c"/><rect x="616" y="640" width="112" height="8" fill="#21242e"/><rect x="344" y="648" width="48" height="8" fill="#21242e"/><rect x="392" y="648" width="48" height="8" fill="#60619c"/><rect x="440" y="648" width="48" height="8" fill="#e6a7bb"/><rect x="488" y="648" width="128" height="8" fill="#60619c"/><rect x="616" y="648" width="112" height="8" fill="#21242e"/><rect x="368" y="656" width="48" height="8" fill="#21242e"/><rect x="416" y="656" width="24" height="8" fill="#60619c"/><rect x="440" y="656" width="48" height="8" fill="#e6a7bb"/><rect x="488" y="656" width="120" height="8" fill="#60619c"/><rect x="608" y="656" width="120" height="8" fill="#21242e"/><rect x="368" y="664" width="48" height="8" fill="#21242e"/><rect x="416" y="664" width="24" height="8" fill="#60619c"/><rect x="440" y="664" width="32" height="8" fill="#e6a7bb"/><rect x="472" y="664" width="16" height="8" fill="#21242e"/><rect x="488" y="664" width="120" height="8" fill="#60619c"/><rect x="608" y="664" width="120" height="8" fill="#21242e"/><rect x="368" y="672" width="48" height="8" fill="#21242e"/><rect x="416" y="672" width="24" height="8" fill="#60619c"/><rect x="440" y="672" width="32" height="8" fill="#111722"/><rect x="472" y="672" width="16" height="8" fill="#21242e"/><rect x="488" y="672" width="120" height="8" fill="#60619c"/><rect x="608" y="672" width="120" height="8" fill="#21242e"/><rect x="368" y="680" width="72" height="8" fill="#21242e"/><rect x="488" y="680" width="48" height="8" fill="#21242e"/><rect x="584" y="680" width="120" height="8" fill="#21242e"/><rect x="368" y="688" width="72" height="8" fill="#21242e"/><rect x="488" y="688" width="48" height="8" fill="#21242e"/><rect x="584" y="688" width="120" height="8" fill="#21242e"/><rect x="368" y="696" width="72" height="8" fill="#21242e"/><rect x="488" y="696" width="48" height="8" fill="#21242e"/><rect x="584" y="696" width="120" height="8" fill="#21242e"/><rect x="392" y="704" width="48" height="8" fill="#21242e"/><rect x="488" y="704" width="48" height="8" fill="#21242e"/><rect x="608" y="704" width="48" height="8" fill="#21242e"/><rect x="392" y="712" width="48" height="8" fill="#21242e"/><rect x="488" y="712" width="48" height="8" fill="#21242e"/><rect x="608" y="712" width="48" height="8" fill="#21242e"/><rect x="392" y="720" width="48" height="8" fill="#21242e"/><rect x="488" y="720" width="48" height="8" fill="#21242e"/><rect x="608" y="720" width="48" height="8" fill="#21242e"/>
</svg>