<svg xmlns="http://www.w3.org/2000/svg" width="1024" height="1024" viewBox="0 0 1024 1024" shape-rendering="crispEdges" style="image-rendering:pixelated">
  <rect width="1024" height="1024" fill="#202832"/>
  <rect x="288" y="336" width="128" height="8" fill="#D8FFFA"/><rect x="480" y="336" width="96" height="8" fill="#D8FFFA"/><rect x="672" y="336" width="96" height="8" fill="#D8FFFA"/><rect x="288" y="344" width="8" height="8" fill="#D8FFFA"/><rect x="296" y="344" width="112" height="8" fill="#0B0F14"/><rect x="408" y="344" width="8" height="8" fill="#D8FFFA"/><rect x="480" y="344" width="8" height="8" fill="#D8FFFA"/><rect x="488" y="344" width="80" height="8" fill="#0B0F14"/><rect x="568" y="344" width="8" height="8" fill="#D8FFFA"/><rect x="672" y="344" width="8" height="8" fill="#D8FFFA"/><rect x="680" y="344" width="80" height="8" fill="#0B0F14"/><rect x="760" y="344" width="8" height="8" fill="#D8FFFA"/><rect x="272" y="352" width="16" height="8" fill="#D8FFFA"/><rect x="288" y="352" width="120" height="8" fill="#0B0F14"/><rect x="408" y="352" width="8" height="8" fill="#D8FFFA"/><rect x="464" y="352" width="16" height="8" fill="#D8FFFA"/><rect x="480" y="352" width="88" height="8" fill="#0B0F14"/><rect x="568" y="352" width="8" height="8" fill="#D8FFFA"/><rect x="656" y="352" width="16" height="8" fill="#D8FFFA"/><rect x="672" y="352" width="88" height="8" fill="#0B0F14"/><rect x="760" y="352" width="8" height="8" fill="#D8FFFA"/><rect x="272" y="360" width="8" height="8" fill="#D8FFFA"/><rect x="280" y="360" width="128" height="8" fill="#0B0F14"/><rect x="408" y="360" width="8" height="8" fill="#D8FFFA"/><rect x="464" y="360" width="8" height="8" fill="#D8FFFA"/><rect x="472" y="360" width="96" height="8" fill="#0B0F14"/><rect x="568" y="360" width="8" height="8" fill="#D8FFFA"/><rect x="656" y="360" width="8" height="8" fill="#D8FFFA"/><rect x="664" y="360" width="96" height="8" fill="#0B0F14"/><rect x="760" y="360" width="8" height="8" fill="#D8FFFA"/><rect x="256" y="368" width="16" height="8" fill="#D8FFFA"/><rect x="272" y="368" width="48" height="8" fill="#0B0F14"/><rect x="320" y="368" width="16" height="8" fill="#526273"/><rect x="336" y="368" width="16" height="8" fill="#20D6C7"/><rect x="352" y="368" width="56" height="8" fill="#0B0F14"/><rect x="408" y="368" width="8" height="8" fill="#D8FFFA"/><rect x="464" y="368" width="8" height="8" fill="#D8FFFA"/><rect x="472" y="368" width="24" height="8" fill="#0B0F14"/><rect x="496" y="368" width="16" height="8" fill="#526273"/><rect x="512" y="368" width="16" height="8" fill="#A7E34B"/><rect x="528" y="368" width="40" height="8" fill="#0B0F14"/><rect x="568" y="368" width="8" height="8" fill="#D8FFFA"/><rect x="656" y="368" width="8" height="8" fill="#D8FFFA"/><rect x="664" y="368" width="8" height="8" fill="#0B0F14"/><rect x="672" y="368" width="16" height="8" fill="#526273"/><rect x="688" y="368" width="16" height="8" fill="#FF5B7F"/><rect x="704" y="368" width="56" height="8" fill="#0B0F14"/><rect x="760" y="368" width="8" height="8" fill="#D8FFFA"/><rect x="256" y="376" width="8" height="8" fill="#D8FFFA"/><rect x="264" y="376" width="56" height="8" fill="#0B0F14"/><rect x="320" y="376" width="16" height="8" fill="#526273"/><rect x="336" y="376" width="16" height="8" fill="#20D6C7"/><rect x="352" y="376" width="56" height="8" fill="#0B0F14"/><rect x="408" y="376" width="8" height="8" fill="#D8FFFA"/><rect x="464" y="376" width="8" height="8" fill="#D8FFFA"/><rect x="472" y="376" width="24" height="8" fill="#0B0F14"/><rect x="496" y="376" width="16" height="8" fill="#526273"/><rect x="512" y="376" width="16" height="8" fill="#A7E34B"/><rect x="528" y="376" width="40" height="8" fill="#0B0F14"/><rect x="568" y="376" width="8" height="8" fill="#D8FFFA"/><rect x="656" y="376" width="8" height="8" fill="#D8FFFA"/><rect x="664" y="376" width="8" height="8" fill="#0B0F14"/><rect x="672" y="376" width="16" height="8" fill="#526273"/><rect x="688" y="376" width="16" height="8" fill="#FF5B7F"/><rect x="704" y="376" width="56" height="8" fill="#0B0F14"/><rect x="760" y="376" width="8" height="8" fill="#D8FFFA"/><rect x="256" y="384" width="8" height="8" fill="#D8FFFA"/><rect x="264" y="384" width="40" height="8" fill="#0B0F14"/><rect x="304" y="384" width="48" height="8" fill="#20D6C7"/><rect x="352" y="384" width="56" height="8" fill="#0B0F14"/><rect x="408" y="384" width="8" height="8" fill="#D8FFFA"/><rect x="448" y="384" width="16" height="8" fill="#D8FFFA"/><rect x="464" y="384" width="16" height="8" fill="#0B0F14"/><rect x="480" y="384" width="64" height="8" fill="#A7E34B"/><rect x="544" y="384" width="24" height="8" fill="#0B0F14"/><rect x="568" y="384" width="8" height="8" fill="#D8FFFA"/><rect x="624" y="384" width="32" height="8" fill="#D8FFFA"/><rect x="656" y="384" width="16" height="8" fill="#0B0F14"/><rect x="672" y="384" width="32" height="8" fill="#FF5B7F"/><rect x="704" y="384" width="56" height="8" fill="#0B0F14"/><rect x="760" y="384" width="8" height="8" fill="#D8FFFA"/><rect x="256" y="392" width="8" height="8" fill="#D8FFFA"/><rect x="264" y="392" width="40" height="8" fill="#0B0F14"/><rect x="304" y="392" width="48" height="8" fill="#20D6C7"/><rect x="352" y="392" width="56" height="8" fill="#0B0F14"/><rect x="408" y="392" width="8" height="8" fill="#D8FFFA"/><rect x="448" y="392" width="8" height="8" fill="#D8FFFA"/><rect x="456" y="392" width="24" height="8" fill="#0B0F14"/><rect x="480" y="392" width="64" height="8" fill="#A7E34B"/><rect x="544" y="392" width="24" height="8" fill="#0B0F14"/><rect x="568" y="392" width="8" height="8" fill="#D8FFFA"/><rect x="624" y="392" width="8" height="8" fill="#D8FFFA"/><rect x="632" y="392" width="40" height="8" fill="#0B0F14"/><rect x="672" y="392" width="32" height="8" fill="#FF5B7F"/><rect x="704" y="392" width="56" height="8" fill="#0B0F14"/><rect x="760" y="392" width="8" height="8" fill="#D8FFFA"/><rect x="256" y="400" width="8" height="8" fill="#D8FFFA"/><rect x="264" y="400" width="40" height="8" fill="#0B0F14"/><rect x="304" y="400" width="48" height="8" fill="#20D6C7"/><rect x="352" y="400" width="56" height="8" fill="#0B0F14"/><rect x="408" y="400" width="8" height="8" fill="#D8FFFA"/><rect x="448" y="400" width="8" height="8" fill="#D8FFFA"/><rect x="456" y="400" width="24" height="8" fill="#0B0F14"/><rect x="480" y="400" width="64" height="8" fill="#A7E34B"/><rect x="544" y="400" width="24" height="8" fill="#0B0F14"/><rect x="568" y="400" width="8" height="8" fill="#D8FFFA"/><rect x="624" y="400" width="8" height="8" fill="#D8FFFA"/><rect x="632" y="400" width="40" height="8" fill="#0B0F14"/><rect x="672" y="400" width="32" height="8" fill="#FF5B7F"/><rect x="704" y="400" width="16" height="8" fill="#526273"/><rect x="720" y="400" width="40" height="8" fill="#0B0F14"/><rect x="760" y="400" width="8" height="8" fill="#D8FFFA"/><rect x="256" y="408" width="8" height="8" fill="#D8FFFA"/><rect x="264" y="408" width="40" height="8" fill="#0B0F14"/><rect x="304" y="408" width="48" height="8" fill="#20D6C7"/><rect x="352" y="408" width="56" height="8" fill="#0B0F14"/><rect x="408" y="408" width="8" height="8" fill="#D8FFFA"/><rect x="448" y="408" width="8" height="8" fill="#D8FFFA"/><rect x="456" y="408" width="24" height="8" fill="#0B0F14"/><rect x="480" y="408" width="64" height="8" fill="#A7E34B"/><rect x="544" y="408" width="24" height="8" fill="#0B0F14"/><rect x="568" y="408" width="8" height="8" fill="#D8FFFA"/><rect x="624" y="408" width="8" height="8" fill="#D8FFFA"/><rect x="632" y="408" width="40" height="8" fill="#0B0F14"/><rect x="672" y="408" width="32" height="8" fill="#FF5B7F"/><rect x="704" y="408" width="16" height="8" fill="#526273"/><rect x="720" y="408" width="40" height="8" fill="#0B0F14"/><rect x="760" y="408" width="8" height="8" fill="#D8FFFA"/><rect x="256" y="416" width="8" height="8" fill="#D8FFFA"/><rect x="264" y="416" width="24" height="8" fill="#0B0F14"/><rect x="288" y="416" width="64" height="8" fill="#20D6C7"/><rect x="352" y="416" width="56" height="8" fill="#0B0F14"/><rect x="408" y="416" width="8" height="8" fill="#D8FFFA"/><rect x="448" y="416" width="8" height="8" fill="#D8FFFA"/><rect x="456" y="416" width="24" height="8" fill="#0B0F14"/><rect x="480" y="416" width="64" height="8" fill="#A7E34B"/><rect x="544" y="416" width="24" height="8" fill="#0B0F14"/><rect x="568" y="416" width="8" height="8" fill="#D8FFFA"/><rect x="608" y="416" width="16" height="8" fill="#D8FFFA"/><rect x="624" y="416" width="48" height="8" fill="#0B0F14"/><rect x="672" y="416" width="48" height="8" fill="#FF5B7F"/><rect x="720" y="416" width="16" height="8" fill="#526273"/><rect x="736" y="416" width="24" height="8" fill="#0B0F14"/><rect x="760" y="416" width="8" height="8" fill="#D8FFFA"/><rect x="256" y="424" width="8" height="8" fill="#D8FFFA"/><rect x="264" y="424" width="24" height="8" fill="#0B0F14"/><rect x="288" y="424" width="64" height="8" fill="#20D6C7"/><rect x="352" y="424" width="56" height="8" fill="#0B0F14"/><rect x="408" y="424" width="8" height="8" fill="#D8FFFA"/><rect x="448" y="424" width="8" height="8" fill="#D8FFFA"/><rect x="456" y="424" width="24" height="8" fill="#0B0F14"/><rect x="480" y="424" width="64" height="8" fill="#A7E34B"/><rect x="544" y="424" width="24" height="8" fill="#0B0F14"/><rect x="568" y="424" width="8" height="8" fill="#D8FFFA"/><rect x="608" y="424" width="8" height="8" fill="#D8FFFA"/><rect x="616" y="424" width="56" height="8" fill="#0B0F14"/><rect x="672" y="424" width="48" height="8" fill="#FF5B7F"/><rect x="720" y="424" width="16" height="8" fill="#526273"/><rect x="736" y="424" width="24" height="8" fill="#0B0F14"/><rect x="760" y="424" width="8" height="8" fill="#D8FFFA"/><rect x="256" y="432" width="8" height="8" fill="#D8FFFA"/><rect x="264" y="432" width="24" height="8" fill="#0B0F14"/><rect x="288" y="432" width="48" height="8" fill="#20D6C7"/><rect x="336" y="432" width="72" height="8" fill="#0B0F14"/><rect x="408" y="432" width="8" height="8" fill="#D8FFFA"/><rect x="448" y="432" width="8" height="8" fill="#D8FFFA"/><rect x="456" y="432" width="24" height="8" fill="#0B0F14"/><rect x="480" y="432" width="48" height="8" fill="#A7E34B"/><rect x="528" y="432" width="40" height="8" fill="#0B0F14"/><rect x="568" y="432" width="8" height="8" fill="#D8FFFA"/><rect x="608" y="432" width="8" height="8" fill="#D8FFFA"/><rect x="616" y="432" width="56" height="8" fill="#0B0F14"/><rect x="672" y="432" width="48" height="8" fill="#FF5B7F"/><rect x="720" y="432" width="40" height="8" fill="#0B0F14"/><rect x="760" y="432" width="8" height="8" fill="#D8FFFA"/><rect x="256" y="440" width="8" height="8" fill="#D8FFFA"/><rect x="264" y="440" width="24" height="8" fill="#0B0F14"/><rect x="288" y="440" width="48" height="8" fill="#20D6C7"/><rect x="336" y="440" width="72" height="8" fill="#0B0F14"/><rect x="408" y="440" width="8" height="8" fill="#D8FFFA"/><rect x="448" y="440" width="8" height="8" fill="#D8FFFA"/><rect x="456" y="440" width="24" height="8" fill="#0B0F14"/><rect x="480" y="440" width="48" height="8" fill="#A7E34B"/><rect x="528" y="440" width="40" height="8" fill="#0B0F14"/><rect x="568" y="440" width="8" height="8" fill="#D8FFFA"/><rect x="608" y="440" width="16" height="8" fill="#D8FFFA"/><rect x="624" y="440" width="48" height="8" fill="#0B0F14"/><rect x="672" y="440" width="48" height="8" fill="#FF5B7F"/><rect x="720" y="440" width="40" height="8" fill="#0B0F14"/><rect x="760" y="440" width="8" height="8" fill="#D8FFFA"/><rect x="256" y="448" width="8" height="8" fill="#D8FFFA"/><rect x="264" y="448" width="40" height="8" fill="#0B0F14"/><rect x="304" y="448" width="32" height="8" fill="#20D6C7"/><rect x="336" y="448" width="72" height="8" fill="#0B0F14"/><rect x="408" y="448" width="8" height="8" fill="#D8FFFA"/><rect x="448" y="448" width="8" height="8" fill="#D8FFFA"/><rect x="456" y="448" width="40" height="8" fill="#0B0F14"/><rect x="496" y="448" width="32" height="8" fill="#A7E34B"/><rect x="528" y="448" width="40" height="8" fill="#0B0F14"/><rect x="568" y="448" width="8" height="8" fill="#D8FFFA"/><rect x="624" y="448" width="8" height="8" fill="#D8FFFA"/><rect x="632" y="448" width="56" height="8" fill="#0B0F14"/><rect x="688" y="448" width="32" height="8" fill="#FF5B7F"/><rect x="720" y="448" width="40" height="8" fill="#0B0F14"/><rect x="760" y="448" width="8" height="8" fill="#D8FFFA"/><rect x="256" y="456" width="16" height="8" fill="#D8FFFA"/><rect x="272" y="456" width="32" height="8" fill="#0B0F14"/><rect x="304" y="456" width="32" height="8" fill="#20D6C7"/><rect x="336" y="456" width="72" height="8" fill="#0B0F14"/><rect x="408" y="456" width="8" height="8" fill="#D8FFFA"/><rect x="448" y="456" width="8" height="8" fill="#D8FFFA"/><rect x="456" y="456" width="40" height="8" fill="#0B0F14"/><rect x="496" y="456" width="32" height="8" fill="#A7E34B"/><rect x="528" y="456" width="40" height="8" fill="#0B0F14"/><rect x="568" y="456" width="8" height="8" fill="#D8FFFA"/><rect x="624" y="456" width="8" height="8" fill="#D8FFFA"/><rect x="632" y="456" width="56" height="8" fill="#0B0F14"/><rect x="688" y="456" width="32" height="8" fill="#FF5B7F"/><rect x="720" y="456" width="40" height="8" fill="#0B0F14"/><rect x="760" y="456" width="8" height="8" fill="#D8FFFA"/><rect x="272" y="464" width="8" height="8" fill="#D8FFFA"/><rect x="280" y="464" width="128" height="8" fill="#0B0F14"/><rect x="408" y="464" width="8" height="8" fill="#D8FFFA"/><rect x="448" y="464" width="8" height="8" fill="#D8FFFA"/><rect x="456" y="464" width="112" height="8" fill="#0B0F14"/><rect x="568" y="464" width="8" height="8" fill="#D8FFFA"/><rect x="624" y="464" width="8" height="8" fill="#D8FFFA"/><rect x="632" y="464" width="128" height="8" fill="#0B0F14"/><rect x="760" y="464" width="8" height="8" fill="#D8FFFA"/><rect x="272" y="472" width="32" height="8" fill="#D8FFFA"/><rect x="304" y="472" width="104" height="8" fill="#0B0F14"/><rect x="408" y="472" width="8" height="8" fill="#D8FFFA"/><rect x="448" y="472" width="8" height="8" fill="#D8FFFA"/><rect x="456" y="472" width="112" height="8" fill="#0B0F14"/><rect x="568" y="472" width="8" height="8" fill="#D8FFFA"/><rect x="624" y="472" width="16" height="8" fill="#D8FFFA"/><rect x="640" y="472" width="120" height="8" fill="#0B0F14"/><rect x="760" y="472" width="8" height="8" fill="#D8FFFA"/><rect x="304" y="480" width="8" height="8" fill="#D8FFFA"/><rect x="312" y="480" width="96" height="8" fill="#0B0F14"/><rect x="408" y="480" width="8" height="8" fill="#D8FFFA"/><rect x="448" y="480" width="8" height="8" fill="#D8FFFA"/><rect x="456" y="480" width="112" height="8" fill="#0B0F14"/><rect x="568" y="480" width="8" height="8" fill="#D8FFFA"/><rect x="640" y="480" width="8" height="8" fill="#D8FFFA"/><rect x="648" y="480" width="112" height="8" fill="#0B0F14"/><rect x="760" y="480" width="8" height="8" fill="#D8FFFA"/><rect x="304" y="488" width="48" height="8" fill="#D8FFFA"/><rect x="352" y="488" width="56" height="8" fill="#0B0F14"/><rect x="408" y="488" width="8" height="8" fill="#D8FFFA"/><rect x="448" y="488" width="8" height="8" fill="#D8FFFA"/><rect x="456" y="488" width="112" height="8" fill="#0B0F14"/><rect x="568" y="488" width="8" height="8" fill="#D8FFFA"/><rect x="640" y="488" width="8" height="8" fill="#D8FFFA"/><rect x="648" y="488" width="24" height="8" fill="#0B0F14"/><rect x="672" y="488" width="96" height="8" fill="#D8FFFA"/><rect x="352" y="496" width="8" height="8" fill="#D8FFFA"/><rect x="360" y="496" width="8" height="8" fill="#526273"/><rect x="368" y="496" width="80" height="8" fill="#20D6C7"/><rect x="448" y="496" width="16" height="8" fill="#526273"/><rect x="464" y="496" width="48" height="8" fill="#A7E34B"/><rect x="512" y="496" width="16" height="8" fill="#526273"/><rect x="528" y="496" width="48" height="8" fill="#FF5B7F"/><rect x="576" y="496" width="16" height="8" fill="#D8FFFA"/><rect x="592" y="496" width="80" height="8" fill="#20D6C7"/><rect x="352" y="504" width="16" height="8" fill="#D8FFFA"/><rect x="368" y="504" width="80" height="8" fill="#20D6C7"/><rect x="448" y="504" width="16" height="8" fill="#526273"/><rect x="464" y="504" width="48" height="8" fill="#A7E34B"/><rect x="512" y="504" width="16" height="8" fill="#526273"/><rect x="528" y="504" width="48" height="8" fill="#FF5B7F"/><rect x="576" y="504" width="16" height="8" fill="#526273"/><rect x="592" y="504" width="80" height="8" fill="#20D6C7"/><rect x="368" y="512" width="80" height="8" fill="#20D6C7"/><rect x="448" y="512" width="64" height="8" fill="#A7E34B"/><rect x="512" y="512" width="64" height="8" fill="#FF5B7F"/><rect x="576" y="512" width="96" height="8" fill="#20D6C7"/><rect x="368" y="520" width="80" height="8" fill="#20D6C7"/><rect x="448" y="520" width="64" height="8" fill="#A7E34B"/><rect x="512" y="520" width="64" height="8" fill="#FF5B7F"/><rect x="576" y="520" width="96" height="8" fill="#20D6C7"/><rect x="368" y="528" width="80" height="8" fill="#20D6C7"/><rect x="448" y="528" width="64" height="8" fill="#A7E34B"/><rect x="512" y="528" width="64" height="8" fill="#FF5B7F"/><rect x="576" y="528" width="80" height="8" fill="#20D6C7"/><rect x="656" y="528" width="8" height="8" fill="#0B0F14"/><rect x="664" y="528" width="8" height="8" fill="#D8FFFA"/><rect x="368" y="536" width="80" height="8" fill="#20D6C7"/><rect x="448" y="536" width="64" height="8" fill="#A7E34B"/><rect x="512" y="536" width="64" height="8" fill="#FF5B7F"/><rect x="576" y="536" width="80" height="8" fill="#20D6C7"/><rect x="656" y="536" width="16" height="8" fill="#D8FFFA"/><rect x="400" y="544" width="32" height="8" fill="#20D6C7"/><rect x="432" y="544" width="16" height="8" fill="#0B0F14"/><rect x="448" y="544" width="48" height="8" fill="#A7E34B"/><rect x="496" y="544" width="16" height="8" fill="#0B0F14"/><rect x="512" y="544" width="48" height="8" fill="#FF5B7F"/><rect x="560" y="544" width="16" height="8" fill="#0B0F14"/><rect x="576" y="544" width="80" height="8" fill="#20D6C7"/><rect x="400" y="552" width="32" height="8" fill="#20D6C7"/><rect x="432" y="552" width="16" height="8" fill="#0B0F14"/><rect x="448" y="552" width="48" height="8" fill="#A7E34B"/><rect x="496" y="552" width="16" height="8" fill="#D8FFFA"/><rect x="512" y="552" width="48" height="8" fill="#FF5B7F"/><rect x="560" y="552" width="16" height="8" fill="#D8FFFA"/><rect x="576" y="552" width="80" height="8" fill="#20D6C7"/><rect x="416" y="560" width="8" height="8" fill="#D8FFFA"/><rect x="424" y="560" width="16" height="8" fill="#0B0F14"/><rect x="440" y="560" width="8" height="8" fill="#D8FFFA"/><rect x="576" y="560" width="8" height="8" fill="#D8FFFA"/><rect x="584" y="560" width="16" height="8" fill="#0B0F14"/><rect x="600" y="560" width="8" height="8" fill="#D8FFFA"/><rect x="416" y="568" width="8" height="8" fill="#D8FFFA"/><rect x="424" y="568" width="16" height="8" fill="#0B0F14"/><rect x="440" y="568" width="8" height="8" fill="#D8FFFA"/><rect x="576" y="568" width="8" height="8" fill="#D8FFFA"/><rect x="584" y="568" width="16" height="8" fill="#0B0F14"/><rect x="600" y="568" width="8" height="8" fill="#D8FFFA"/><rect x="400" y="576" width="16" height="8" fill="#D8FFFA"/><rect x="416" y="576" width="32" height="8" fill="#0B0F14"/><rect x="448" y="576" width="16" height="8" fill="#D8FFFA"/><rect x="560" y="576" width="16" height="8" fill="#D8FFFA"/><rect x="576" y="576" width="32" height="8" fill="#0B0F14"/><rect x="608" y="576" width="16" height="8" fill="#D8FFFA"/><rect x="400" y="584" width="8" height="8" fill="#D8FFFA"/><rect x="408" y="584" width="48" height="8" fill="#0B0F14"/><rect x="456" y="584" width="8" height="8" fill="#D8FFFA"/><rect x="560" y="584" width="8" height="8" fill="#D8FFFA"/><rect x="568" y="584" width="48" height="8" fill="#0B0F14"/><rect x="616" y="584" width="8" height="8" fill="#D8FFFA"/><rect x="400" y="592" width="8" height="8" fill="#D8FFFA"/><rect x="408" y="592" width="48" height="8" fill="#0B0F14"/><rect x="456" y="592" width="8" height="8" fill="#D8FFFA"/><rect x="560" y="592" width="8" height="8" fill="#D8FFFA"/><rect x="568" y="592" width="48" height="8" fill="#0B0F14"/><rect x="616" y="592" width="8" height="8" fill="#D8FFFA"/><rect x="400" y="600" width="8" height="8" fill="#D8FFFA"/><rect x="408" y="600" width="48" height="8" fill="#0B0F14"/><rect x="456" y="600" width="8" height="8" fill="#D8FFFA"/><rect x="560" y="600" width="8" height="8" fill="#D8FFFA"/><rect x="568" y="600" width="48" height="8" fill="#0B0F14"/><rect x="616" y="600" width="8" height="8" fill="#D8FFFA"/><rect x="368" y="608" width="32" height="8" fill="#D8FFFA"/><rect x="400" y="608" width="64" height="8" fill="#0B0F14"/><rect x="464" y="608" width="32" height="8" fill="#D8FFFA"/><rect x="528" y="608" width="32" height="8" fill="#D8FFFA"/><rect x="560" y="608" width="64" height="8" fill="#0B0F14"/><rect x="624" y="608" width="32" height="8" fill="#D8FFFA"/><rect x="368" y="616" width="8" height="8" fill="#D8FFFA"/><rect x="376" y="616" width="112" height="8" fill="#0B0F14"/><rect x="488" y="616" width="8" height="8" fill="#D8FFFA"/><rect x="528" y="616" width="8" height="8" fill="#D8FFFA"/><rect x="536" y="616" width="112" height="8" fill="#0B0F14"/><rect x="648" y="616" width="8" height="8" fill="#D8FFFA"/><rect x="352" y="624" width="16" height="8" fill="#D8FFFA"/><rect x="368" y="624" width="128" height="8" fill="#0B0F14"/><rect x="496" y="624" width="32" height="8" fill="#D8FFFA"/><rect x="528" y="624" width="128" height="8" fill="#0B0F14"/><rect x="656" y="624" width="16" height="8" fill="#D8FFFA"/><rect x="352" y="632" width="8" height="8" fill="#D8FFFA"/><rect x="360" y="632" width="304" height="8" fill="#0B0F14"/><rect x="664" y="632" width="8" height="8" fill="#D8FFFA"/><rect x="352" y="640" width="8" height="8" fill="#D8FFFA"/><rect x="360" y="640" width="304" height="8" fill="#0B0F14"/><rect x="664" y="640" width="8" height="8" fill="#D8FFFA"/><rect x="352" y="648" width="64" height="8" fill="#D8FFFA"/><rect x="416" y="648" width="192" height="8" fill="#0B0F14"/><rect x="608" y="648" width="64" height="8" fill="#D8FFFA"/><rect x="416" y="656" width="8" height="8" fill="#D8FFFA"/><rect x="424" y="656" width="8" height="8" fill="#526273"/><rect x="432" y="656" width="168" height="8" fill="#151B24"/><rect x="600" y="656" width="8" height="8" fill="#D8FFFA"/><rect x="416" y="664" width="8" height="8" fill="#D8FFFA"/><rect x="424" y="664" width="8" height="8" fill="#526273"/><rect x="432" y="664" width="168" height="8" fill="#151B24"/><rect x="600" y="664" width="8" height="8" fill="#D8FFFA"/><rect x="416" y="672" width="8" height="8" fill="#D8FFFA"/><rect x="424" y="672" width="168" height="8" fill="#151B24"/><rect x="592" y="672" width="8" height="8" fill="#0B0F14"/><rect x="600" y="672" width="8" height="8" fill="#D8FFFA"/><rect x="416" y="680" width="192" height="8" fill="#D8FFFA"/>
</svg>